<?xml version="1.0" standalone="no"?>
<!DOCTYPE svg PUBLIC "-//W3C//DTD SVG 20010904//EN"
 "http://www.w3.org/TR/2001/REC-SVG-20010904/DTD/svg10.dtd">
<svg version="1.0" xmlns="http://www.w3.org/2000/svg"
 width="478.000000pt" height="1389.000000pt" viewBox="0 0 478.000000 1389.000000"
 preserveAspectRatio="xMidYMid meet">

<g transform="translate(0.000000,1389.000000) scale(0.100000,-0.100000)"
fill="#000000" stroke="none">
<path d="M2975 13865 c-22 -15 -74 -59 -117 -99 -42 -39 -104 -95 -137 -125
-34 -30 -61 -61 -61 -72 0 -29 10 -24 65 34 27 28 79 69 115 91 36 21 57 35
48 32 -32 -10 -19 11 35 56 85 72 97 78 157 78 116 0 348 -36 413 -64 37 -16
238 -216 297 -295 40 -55 70 -122 91 -206 6 -25 15 -43 19 -40 15 9 200 -396
200 -436 0 -5 -10 -3 -22 5 -34 24 -58 20 -28 -5 67 -54 77 -69 94 -136 9 -37
21 -84 26 -102 14 -54 4 -49 -27 13 -26 54 -43 71 -43 43 0 -7 18 -43 40 -80
22 -36 40 -70 40 -74 0 -4 7 -21 16 -38 11 -22 14 -44 9 -84 -7 -57 -14 -57
-35 -1 -25 63 -92 175 -119 198 -45 39 -213 149 -277 181 l-61 31 14 52 c8 29
13 71 11 93 -1 22 4 58 12 80 19 51 21 329 3 366 -6 13 -19 49 -29 79 -18 60
-44 114 -81 173 -40 64 -37 35 5 -49 54 -108 67 -151 86 -281 19 -128 11 -276
-16 -310 -5 -7 -7 -25 -4 -40 6 -26 -8 -140 -18 -150 -2 -3 -40 4 -83 14 -63
14 -118 18 -283 17 -221 0 -268 -8 -442 -70 -119 -43 -368 -172 -368 -190 0
-3 7 -4 15 -1 11 5 12 1 5 -19 -41 -107 -101 -448 -116 -657 -4 -54 -8 -96 -9
-95 -2 2 -5 25 -8 51 -8 81 -17 66 -17 -29 0 -164 18 -313 45 -372 28 -61 153
-238 230 -327 53 -61 178 -140 207 -131 7 3 33 7 57 11 l45 6 -19 -21 c-24
-26 -22 -74 7 -137 11 -27 26 -88 33 -138 12 -85 29 -135 118 -336 l16 -36
-72 14 c-49 9 -182 15 -412 19 -187 2 -360 8 -384 12 l-44 7 -28 123 c-25 110
-52 202 -119 411 -24 76 -25 87 -4 67 8 -9 18 -16 20 -16 6 0 1 8 -39 67 -24
34 -44 92 -84 238 -3 11 31 -18 75 -65 45 -47 81 -80 82 -75 0 6 -32 47 -71
90 -103 115 -117 135 -138 201 -25 76 -84 238 -104 287 -9 20 -15 37 -13 37 6
0 102 -127 138 -182 36 -56 48 -68 48 -49 0 19 -101 160 -164 229 -36 40 -66
79 -66 87 0 7 -18 21 -40 31 -34 15 -38 20 -27 33 8 9 26 37 41 63 15 26 67
88 116 137 61 60 90 96 90 111 0 16 34 57 111 132 61 59 106 108 100 108 -12
0 -62 -40 -129 -104 l-53 -51 19 55 c31 90 197 397 252 467 11 14 20 29 20 34
0 4 38 75 85 156 107 185 105 181 136 223 14 19 40 62 59 95 18 33 52 91 77
128 66 103 37 73 -51 -53 -179 -254 -676 -1155 -676 -1224 0 -18 -34 -56 -136
-151 -113 -106 -139 -126 -157 -120 -12 4 -35 9 -52 12 -16 3 -37 12 -46 20
-10 8 -41 21 -70 28 -40 11 -61 24 -88 55 -32 35 -42 40 -82 42 -50 1 -69 -6
-69 -27 0 -18 -24 -24 -91 -23 -47 0 -67 -5 -113 -31 -30 -18 -58 -36 -61 -42
-8 -12 -35 -12 -35 1 0 16 77 67 128 86 57 21 80 38 37 28 -51 -12 -151 -64
-200 -105 -26 -22 -52 -39 -57 -39 -6 0 -8 19 -4 48 3 26 13 133 21 237 21
249 86 807 100 855 7 22 54 354 61 428 6 57 5 62 -13 62 -15 0 -27 -15 -45
-57 -14 -32 -28 -65 -30 -73 -3 -8 -3 21 0 64 4 63 2 81 -10 90 -9 6 -19 30
-23 54 -4 23 -9 42 -13 42 -13 0 -120 -65 -159 -96 -23 -19 -46 -49 -52 -67
-14 -46 -29 -161 -42 -319 -5 -76 -12 -146 -14 -155 -1 -10 -6 -49 -10 -88 -4
-38 -9 -81 -11 -95 -2 -14 -9 -70 -14 -125 -12 -118 -45 -422 -60 -550 -6 -49
-19 -171 -30 -269 -11 -99 -25 -185 -32 -193 -6 -8 -31 -26 -55 -40 -42 -24
-62 -60 -48 -83 4 -6 31 -24 60 -41 30 -17 57 -39 60 -50 8 -25 25 -15 25 16
0 13 8 28 17 34 10 5 18 20 18 33 2 33 15 68 26 69 5 1 15 2 22 3 6 1 18 -4
25 -11 12 -11 10 -20 -8 -51 -22 -37 -22 -37 -1 -18 12 11 21 14 21 8 0 -6 -5
-14 -10 -17 -6 -3 -10 -15 -10 -26 0 -14 -7 -19 -25 -19 -14 0 -25 -4 -25 -9
0 -4 11 -6 25 -3 36 6 34 -30 -2 -46 l-28 -12 28 5 c21 4 27 2 27 -13 0 -10
-3 -22 -7 -26 -4 -4 -6 -22 -4 -41 2 -27 -4 -40 -26 -61 -16 -16 -21 -25 -11
-21 12 4 15 2 11 -9 -3 -7 0 -14 6 -14 17 0 13 -21 -7 -36 -10 -8 -12 -13 -4
-14 24 0 10 -100 -14 -100 -8 0 -14 -4 -14 -10 0 -5 5 -10 10 -10 24 0 7 -29
-20 -35 -36 -8 -40 -25 -5 -25 29 0 34 -25 6 -33 -18 -4 -39 -72 -27 -85 3 -3
6 4 6 14 0 11 7 29 15 40 23 31 18 -4 -9 -58 -16 -34 -19 -48 -10 -48 7 0 17
12 22 28 9 22 11 10 11 -60 1 -52 5 -88 11 -88 6 0 10 44 10 113 0 158 28 300
75 378 20 32 40 59 44 59 3 0 14 12 24 28 9 15 30 42 45 60 l29 32 1 -114 c1
-117 27 -295 63 -436 30 -115 79 -259 91 -267 7 -4 9 -1 6 8 -16 43 -63 206
-88 307 -42 173 -63 339 -58 454 4 88 8 102 39 154 63 106 270 295 344 315 19
5 80 13 137 17 101 8 104 8 136 -17 54 -43 106 -174 222 -561 18 -58 40 -132
50 -165 10 -33 44 -152 75 -265 72 -258 138 -454 170 -502 28 -42 24 -68 -20
-120 -14 -16 -25 -42 -25 -56 0 -24 -74 -172 -85 -172 -2 0 -23 60 -45 133
-23 72 -50 159 -60 192 -11 33 -42 134 -71 225 -121 388 -346 991 -349 935 0
-5 20 -62 44 -125 129 -331 247 -673 340 -980 33 -109 63 -209 107 -347 l19
-63 -27 -42 c-34 -55 -105 -149 -109 -146 -1 2 -10 46 -19 98 -9 52 -27 145
-40 205 -31 139 -31 135 -50 230 -21 97 -24 109 -30 103 -3 -3 0 -29 6 -59 5
-30 14 -76 19 -104 5 -27 21 -104 35 -170 14 -66 34 -167 45 -225 l19 -104
-42 -54 c-84 -107 -157 -221 -243 -380 -20 -37 -40 -71 -44 -75 -4 -5 -26 42
-49 104 -46 122 -67 165 -56 114 4 -16 25 -77 47 -135 22 -58 40 -109 40 -115
0 -5 -21 -59 -46 -120 -42 -101 -46 -107 -46 -70 -1 50 -19 131 -59 261 -17
56 -40 146 -52 200 -11 54 -23 102 -25 106 -3 5 -1 14 4 21 34 43 87 294 96
452 4 68 42 186 106 328 12 27 20 51 17 53 -9 9 -43 -61 -87 -178 -36 -94 -46
-113 -53 -96 -13 36 -18 13 -7 -36 15 -70 -13 -295 -54 -426 l-14 -45 -1 36
c-1 44 -45 107 -95 138 -30 19 -49 22 -143 22 -116 0 -195 -11 -243 -36 l-30
-15 5 27 c8 53 14 398 6 373 -8 -26 -21 -236 -21 -346 l0 -62 -62 5 c-80 6
-267 -12 -312 -31 -30 -12 -36 -22 -56 -87 -52 -173 -60 -243 -67 -615 -4
-229 -2 -433 6 -585 15 -293 38 -549 51 -584 28 -73 99 -176 169 -243 l75 -72
7 -233 c4 -127 12 -277 18 -332 6 -55 11 -104 11 -108 0 -18 20 5 20 24 0 16
7 19 40 19 42 0 55 -18 20 -27 -11 -3 -20 -13 -20 -23 0 -13 6 -17 20 -13 17
4 20 0 20 -25 0 -17 5 -32 12 -34 16 -6 0 -28 -20 -28 -14 0 -16 -8 -13 -52 3
-48 5 -51 13 -25 13 38 28 34 28 -8 0 -21 -5 -35 -12 -35 -7 0 -23 -3 -34 -6
-20 -5 -22 -1 -26 48 -2 30 1 57 7 61 7 6 6 10 -2 14 -20 8 -15 23 7 23 13 0
20 7 20 20 0 13 -7 20 -19 20 -21 0 -31 -19 -31 -56 0 -13 -4 -24 -10 -24 -6
0 -10 -34 -10 -82 0 -65 4 -90 20 -116 25 -40 104 -92 141 -92 15 0 30 -4 33
-8 3 -5 12 -125 20 -268 9 -142 18 -286 20 -319 3 -38 -1 -71 -10 -93 -11 -28
-12 -51 -4 -126 6 -50 14 -98 17 -106 3 -8 7 -44 9 -80 1 -36 3 -74 3 -85 1
-11 -2 -41 -5 -67 -4 -32 0 -66 11 -102 13 -41 16 -72 11 -123 -9 -88 -7 -209
3 -303 18 -153 -1 -336 -39 -385 -5 -6 -11 -57 -15 -115 -6 -97 -5 -108 17
-150 20 -38 27 -45 50 -42 18 2 30 -3 36 -15 14 -26 36 -350 28 -403 -4 -25
-7 -58 -7 -75 -1 -16 -7 -50 -15 -74 -11 -31 -13 -61 -7 -105 4 -33 6 -65 4
-71 -4 -12 -27 -185 -43 -315 -6 -52 -12 -150 -12 -217 -2 -95 -6 -126 -18
-140 -25 -29 -48 -80 -48 -107 0 -14 12 -57 26 -96 24 -64 34 -77 94 -126 51
-41 69 -62 74 -87 18 -91 65 -250 78 -263 17 -17 24 -18 186 -36 88 -9 142 -9
240 0 174 16 182 16 182 -8 0 -18 4 -17 53 13 l52 32 235 6 c129 3 235 6 236
7 0 1 7 35 13 75 7 39 17 86 22 102 4 17 11 57 14 90 4 33 11 76 16 95 5 19
18 96 29 170 26 181 95 575 127 730 14 69 28 141 29 160 3 33 22 134 42 225 5
22 14 50 20 62 13 23 59 63 73 63 28 0 82 -169 72 -224 -9 -47 53 -430 77
-475 4 -9 4 -40 -1 -69 -22 -144 -22 -204 3 -272 36 -98 99 -185 159 -218 55
-30 62 -45 79 -167 16 -110 30 -130 103 -146 83 -19 237 -16 316 5 70 18 167
64 219 102 28 22 32 23 32 7 1 -11 8 -4 19 18 10 20 25 47 34 60 10 13 17 35
17 50 0 41 23 97 75 183 46 75 58 112 85 256 9 51 66 267 107 410 22 75 28
118 29 205 1 94 15 199 31 241 2 7 -5 21 -17 32 -20 18 -20 21 -5 29 15 9 16
20 6 119 -6 60 -14 164 -17 232 -7 126 -5 140 42 290 8 24 14 86 14 144 0 78
4 105 16 119 24 26 30 152 11 219 -12 42 -16 104 -16 255 -1 110 -5 277 -11
370 l-10 170 65 60 64 60 11 101 12 100 -41 109 -41 108 -5 486 c-6 475 -19
812 -34 839 -5 9 -14 -9 -25 -48 l-17 -61 -39 53 c-32 44 -80 89 -80 74 0 -2
9 -23 20 -47 26 -58 26 -148 -1 -235 -24 -79 -34 -95 -43 -66 -4 12 1 33 14
54 23 39 25 73 5 108 -10 17 -14 57 -15 125 0 210 -22 670 -32 680 -7 7 -8
-32 -3 -120 12 -206 21 -625 13 -625 -15 0 -28 41 -28 88 0 27 -3 63 -6 80 -8
38 -60 98 -94 108 -24 6 -24 6 -8 -12 27 -31 32 -72 18 -158 -12 -77 -11 -85
8 -129 l21 -48 -31 23 c-33 23 -31 17 14 -46 15 -21 26 -42 23 -46 -3 -4 -26
-11 -52 -15 -78 -12 -91 29 -49 158 23 69 25 121 5 133 -5 3 -9 -6 -9 -21 0
-14 -12 -49 -27 -78 -28 -55 -38 -152 -19 -191 7 -14 6 -18 -5 -14 -33 11 -70
283 -50 370 6 28 10 53 8 54 -9 9 -49 -91 -68 -167 -16 -65 -20 -106 -17 -181
3 -76 1 -99 -10 -103 -25 -9 -29 -5 -36 36 -4 23 -15 65 -25 94 -17 47 -17 56
-4 91 66 182 72 248 29 331 -14 29 -39 67 -54 85 -102 117 -167 241 -181 343
l-7 50 -13 -45 c-28 -95 8 -235 95 -372 74 -117 83 -145 84 -250 0 -90 -7
-106 -29 -65 -13 22 -111 104 -111 92 0 -4 18 -27 40 -52 22 -25 42 -61 46
-80 11 -58 -33 -273 -56 -273 -6 0 -10 24 -11 53 l-1 52 -13 -30 c-8 -16 -14
-40 -15 -52 0 -16 -6 -23 -20 -23 -37 0 -90 229 -90 393 0 131 12 171 65 224
23 24 38 43 33 43 -4 0 -37 -13 -73 -29 -75 -34 -152 -106 -189 -177 -14 -27
-25 -45 -26 -41 0 4 -16 101 -35 215 -19 114 -41 250 -50 302 -116 698 -162
952 -164 905 -1 -11 17 -128 40 -260 22 -132 46 -280 54 -330 8 -49 23 -147
34 -217 26 -160 26 -162 -4 -102 -25 51 -59 88 -107 119 -39 24 -35 6 7 -34
60 -57 70 -84 70 -196 -1 -100 -1 -100 -66 -260 -36 -88 -69 -168 -73 -179 -5
-15 -9 -16 -21 -6 -19 16 -12 45 31 132 40 79 45 142 15 179 l-18 22 1 -45 c1
-35 -5 -52 -29 -82 -16 -21 -42 -55 -56 -77 -23 -33 -28 -37 -39 -24 -13 15
-40 175 -40 236 0 20 9 66 20 102 26 84 62 117 128 117 l47 1 -27 15 c-15 8
-54 17 -87 20 -52 6 -67 3 -115 -20 -83 -41 -116 -91 -150 -229 l-23 -92 -38
57 -37 57 12 65 c6 35 9 74 5 86 -11 33 -64 89 -107 111 -47 24 -48 17 -2 -23
48 -42 67 -82 59 -124 -3 -19 -9 -34 -13 -34 -4 1 -42 53 -85 116 l-78 116 25
43 c35 58 107 120 170 144 l51 20 -55 0 c-68 1 -156 -21 -224 -55 l-51 -26
-22 29 c-13 15 -40 53 -60 83 -21 30 -62 89 -91 130 -29 41 -91 139 -139 217
l-85 143 58 105 c57 102 145 233 211 312 l32 38 7 -32 c3 -18 10 -33 14 -33 4
0 4 18 -1 40 -9 39 -8 42 67 143 42 56 79 103 84 105 4 2 13 -11 18 -28 17
-47 23 -35 8 14 -13 44 -13 46 22 103 19 32 53 96 75 143 22 46 48 96 57 110
10 14 21 41 24 61 6 34 8 35 67 47 46 10 62 18 70 36 10 22 13 23 142 19 73
-2 195 -8 272 -13 77 -6 248 -18 380 -28 l240 -17 22 -41 c12 -22 40 -108 63
-191 45 -172 80 -269 140 -398 45 -96 82 -203 161 -465 70 -231 158 -385 152
-264 -1 21 -5 61 -9 87 -7 57 18 127 46 127 9 0 43 -9 76 -21 45 -16 85 -21
165 -22 l105 -1 77 43 c133 74 323 245 392 354 11 18 46 57 77 88 63 62 71 83
88 224 13 106 9 135 -30 213 -16 32 -32 70 -35 85 -4 15 -11 29 -15 32 -5 3
-33 42 -64 88 -70 105 -100 136 -192 197 -41 28 -74 53 -74 55 0 6 40 -10 90
-35 22 -11 40 -16 40 -11 0 13 -40 37 -99 57 -55 20 -111 78 -111 116 0 10 -4
17 -9 15 -5 -1 -28 18 -53 43 -24 25 -81 81 -127 125 -46 44 -116 116 -156
161 -70 76 -75 84 -89 155 -9 40 -16 79 -16 86 0 17 206 -115 254 -162 21 -21
49 -65 63 -97 14 -32 30 -58 34 -58 30 0 -21 128 -70 177 -18 17 -67 53 -109
79 -42 26 -99 63 -125 82 -47 33 -47 35 -32 58 23 35 91 250 99 312 4 34 27
93 65 170 155 309 214 476 241 677 12 84 11 93 -9 138 -11 27 -21 62 -21 78 0
73 -56 269 -122 429 -45 107 -123 272 -148 310 -9 14 -28 58 -43 98 -36 99
-92 175 -233 313 -96 94 -129 119 -169 132 -67 22 -225 46 -360 53 -108 6
-111 6 -150 -21z m-2227 -360 c-20 -14 -45 -25 -55 -25 -29 1 37 50 67 50 23
0 22 -2 -12 -25z m-8 -165 c-30 -25 -80 -41 -80 -25 0 11 76 55 95 55 17 0 14
-5 -15 -30z m-24 -185 c-20 -14 -49 -27 -64 -31 -27 -5 -27 -5 8 25 21 19 46
31 64 31 l29 0 -37 -25z m8 -146 c-20 -23 -89 -58 -114 -59 -21 0 59 64 89 71
43 11 45 10 25 -12z m-24 -173 c0 -10 -57 -44 -85 -50 l-30 -6 33 30 c18 17
43 30 57 30 14 0 25 -2 25 -4z m-47 -200 c-16 -14 -43 -28 -59 -31 l-29 -6 35
30 c19 17 45 31 58 31 23 0 23 0 -5 -24z m2552 -25 c20 -40 2 -49 -24 -12 -25
35 -26 41 -6 41 8 0 21 -13 30 -29z m475 -21 c0 -38 -4 -50 -15 -50 -11 0 -15
12 -15 50 0 38 4 50 15 50 11 0 15 -12 15 -50z m-48 -17 c3 -40 6 -48 24 -51
25 -4 32 -30 35 -127 1 -33 6 -62 10 -65 11 -8 -10 -124 -26 -136 -8 -6 -12
-13 -9 -16 2 -3 -29 -90 -69 -194 -46 -115 -85 -236 -102 -309 l-27 -120 -122
-1 c-132 -1 -210 -21 -336 -84 -58 -29 -60 -30 -70 -10 -18 33 -32 189 -24
270 8 91 11 96 36 74 14 -14 12 -4 -11 40 -17 32 -31 67 -31 78 0 10 -4 17 -9
14 -10 -6 -31 13 -113 103 -32 34 -58 69 -58 77 0 8 -4 14 -10 14 -5 0 -21 20
-35 43 -26 45 -33 91 -15 102 6 3 7 -1 4 -10 -10 -24 24 -68 48 -62 21 6 57
-22 50 -41 -2 -6 5 -10 15 -9 10 0 33 -10 51 -23 24 -18 31 -29 26 -44 -6 -18
-5 -19 9 -8 13 11 21 10 49 -4 18 -9 43 -25 56 -35 23 -18 23 -18 3 -29 -29
-15 -26 -28 4 -22 14 2 25 11 25 19 0 9 20 -3 52 -31 29 -25 54 -43 57 -40 4
3 -6 16 -21 29 -32 28 -118 192 -118 227 0 14 -7 28 -15 31 -17 7 -104 177
-98 193 2 7 -8 25 -23 40 -24 27 -64 95 -64 110 0 3 7 1 15 -6 9 -7 29 -10 48
-8 27 4 36 0 61 -29 22 -26 26 -37 17 -46 -18 -18 -13 -28 12 -22 18 4 35 -11
94 -83 67 -80 71 -88 53 -96 -29 -13 -24 -23 9 -18 26 4 35 -4 90 -73 34 -42
61 -81 61 -86 0 -5 3 -9 8 -9 4 0 6 41 4 91 -2 57 1 94 7 98 14 9 -41 157 -85
230 -19 31 -34 67 -34 81 0 25 0 25 26 -7 26 -33 51 -42 70 -23 7 7 20 0 40
-22 58 -66 59 -68 43 -79 -11 -8 -8 -9 10 -7 20 2 30 -7 57 -52 35 -59 44 -93
20 -84 -8 3 -17 1 -21 -5 -3 -6 2 -11 13 -11 21 0 29 -28 57 -215 17 -107 32
-147 21 -53 -6 42 -4 63 7 80 8 13 31 64 50 113 36 91 47 152 51 280 3 106 42
161 48 68z m-802 22 c7 -9 10 -19 6 -22 -8 -9 -38 9 -44 25 -5 17 23 15 38 -3z
m-2179 -119 c-26 -28 -88 -63 -96 -54 -9 9 45 60 74 68 42 13 46 11 22 -14z
m3499 -120 l44 -87 -32 -111 c-43 -146 -69 -211 -162 -399 -66 -134 -147 -279
-156 -279 -4 0 2 23 13 50 6 14 9 28 7 31 -2 3 23 60 56 127 61 125 180 395
180 409 0 4 -18 -23 -40 -62 -22 -38 -40 -66 -40 -61 0 5 -16 -12 -36 -38 -20
-26 -38 -46 -40 -43 -4 4 18 83 67 237 16 52 32 111 36 130 3 19 9 40 13 45 4
6 13 40 20 77 8 37 16 65 19 63 4 -2 26 -42 51 -89z m-3506 -47 c-21 -24 -73
-49 -101 -49 -27 0 41 58 74 63 16 2 32 5 37 6 5 0 1 -9 -10 -20z m2075 -75
c3 -16 1 -17 -13 -5 -19 16 -21 34 -3 29 6 -3 14 -13 16 -24z m-2119 -99 c-37
-31 -80 -46 -80 -29 0 8 49 47 69 56 46 19 51 6 11 -27z m-6 -159 c-27 -24
-93 -51 -102 -42 -7 8 69 61 95 67 39 7 40 4 7 -25z m3090 -2921 c11 -93 -16
-42 -39 75 l-7 35 19 -25 c12 -15 23 -49 27 -85z m-2275 -125 c34 -61 120
-192 191 -293 93 -132 125 -185 118 -194 -6 -7 -13 -13 -17 -13 -4 0 -33 45
-65 100 -55 94 -76 122 -76 103 0 -4 27 -55 60 -111 60 -104 68 -126 50 -137
-20 -13 -61 -172 -67 -262 -3 -51 -9 -93 -14 -93 -29 0 -108 247 -109 338 0
91 58 272 92 285 8 3 5 6 -6 6 -30 1 -94 -76 -137 -165 -33 -70 -67 -208 -69
-279 0 -5 -15 17 -33 50 -40 73 -107 174 -107 160 0 -6 15 -55 34 -110 18 -55
36 -113 40 -130 l7 -30 -22 25 -21 25 6 -34 c18 -104 19 -141 3 -141 -8 0 -30
25 -47 55 -17 30 -38 59 -47 64 -38 21 9 295 67 390 12 18 19 35 17 37 -7 7
-70 -74 -105 -134 -25 -44 -31 -50 -27 -27 4 17 11 39 17 51 6 14 7 42 0 84
-11 73 5 135 58 225 16 28 53 98 82 157 29 59 55 107 58 107 3 1 34 -49 69
-109z m500 -732 l73 -110 -44 -97 c-25 -53 -49 -107 -54 -120 -9 -20 -14 -6
-38 95 -47 203 -47 203 10 69 21 -49 40 -83 42 -74 1 8 -18 64 -43 124 -25 61
-45 124 -45 144 0 41 9 81 19 81 3 -1 39 -51 80 -112z m-711 -220 c3 -65 1
-98 -6 -98 -14 0 -32 112 -31 196 l1 69 15 -35 c8 -19 18 -79 21 -132z m1489
90 c-3 -7 -5 -2 -5 12 0 14 2 19 5 13 2 -7 2 -19 0 -25z m10 -60 c-3 -7 -5 -2
-5 12 0 14 2 19 5 13 2 -7 2 -19 0 -25z m-1419 -26 c5 -31 -15 -27 -21 3 -3
16 0 24 7 22 6 -2 12 -13 14 -25z m827 -152 c-9 -99 -15 -111 -31 -64 -8 21
-14 48 -14 59 0 16 -2 17 -9 6 -7 -10 -12 4 -17 47 -3 34 -11 62 -15 62 -13 0
-11 -43 7 -146 9 -51 14 -100 10 -110 -14 -35 -28 4 -38 107 -10 97 -9 108 12
162 l22 59 40 -59 c38 -57 39 -60 33 -123z m638 -74 c16 -87 16 -92 -3 -158
-12 -37 -24 -92 -28 -122 l-7 -54 -44 39 -45 38 17 53 c9 29 21 85 27 123 6
39 18 102 26 142 8 40 15 94 15 120 1 47 2 47 14 -22 7 -38 20 -110 28 -159z
m-691 -108 c-8 -8 -9 -4 -5 13 4 13 8 18 11 10 2 -7 -1 -18 -6 -23z m400 -40
c-10 -22 -11 -21 -11 12 -1 26 2 31 11 22 8 -8 8 -17 0 -34z m-468 -107 c-55
-95 -180 -164 -324 -179 -128 -13 -193 -6 -221 24 -12 13 -20 26 -18 28 3 3
76 0 164 -6 l160 -11 61 31 c75 38 157 102 180 141 10 17 20 28 22 26 3 -2 -8
-27 -24 -54z m-84 -25 c0 -15 -18 -31 -26 -23 -7 7 7 37 17 37 5 0 9 -6 9 -14z
m800 -123 l0 -42 -51 31 c-27 18 -52 34 -54 37 -2 4 2 28 8 54 l11 48 43 -43
c37 -37 43 -48 43 -85z m-2340 42 c0 -8 -4 -15 -10 -15 -5 0 -10 7 -10 15 0 8
5 15 10 15 6 0 10 -7 10 -15z m2293 -79 l53 -34 3 -141 c1 -77 0 -145 -4 -150
-3 -6 -12 -8 -20 -4 -13 4 -14 21 -9 97 5 70 3 104 -10 148 -18 61 -42 92 -32
42 9 -49 10 -87 2 -139 -10 -72 -21 -84 -35 -43 -23 62 -27 258 -6 258 3 0 29
-15 58 -34z m986 -33 c0 -32 -4 -67 -8 -77 -6 -16 -10 -14 -24 17 -10 20 -29
50 -43 66 l-25 30 28 7 c15 3 33 7 38 9 31 10 35 4 34 -52z m-117 10 c26 -32
39 -79 36 -134 l-3 -54 -42 89 c-24 49 -43 95 -43 102 0 20 34 17 52 -3z
m-142 -105 c23 -99 37 -207 26 -197 -4 4 -15 35 -26 70 l-18 64 -1 -56 c-1
-30 6 -79 15 -108 8 -29 13 -55 11 -58 -8 -8 -46 119 -58 195 -12 70 -11 73
11 97 25 27 21 32 -11 15 -17 -10 -19 -7 -19 30 0 36 3 40 24 40 22 0 26 -7
46 -92z m-320 20 c0 -62 -5 -60 -14 5 -5 31 -4 47 3 47 7 0 11 -22 11 -52z
m683 -18 c66 -167 107 -338 109 -448 2 -108 -8 -97 -16 19 -4 66 -15 126 -31
173 -13 39 -38 121 -55 181 -17 61 -33 119 -36 130 -12 40 4 9 29 -55z m-1051
-255 c-2 -16 -9 -42 -17 -59 -13 -31 -13 -31 -14 25 -1 31 2 59 6 63 14 14 28
-2 25 -29z m-2185 -147 c-3 -7 -5 -2 -5 12 0 14 2 19 5 13 2 -7 2 -19 0 -25z
m1138 -1114 c-17 -13 -18 -18 -6 -50 10 -27 10 -38 1 -49 -19 -23 -26 -18 -49
36 -28 63 -25 77 19 100 35 19 35 19 45 -2 7 -17 5 -24 -10 -35z m313 40 c29
-20 27 -61 -3 -56 -24 5 -35 19 -35 50 0 26 8 27 38 6z m-68 -246 c0 -19 -30
-66 -45 -72 -26 -10 -105 -7 -105 4 0 13 34 30 59 30 11 0 30 13 42 29 20 27
49 33 49 9z"/>
<path d="M3180 12983 c-181 -17 -394 -61 -481 -97 -58 -24 -166 -148 -301
-346 -76 -112 -88 -133 -94 -168 -3 -15 -9 -52 -15 -82 -26 -136 -18 -634 11
-725 7 -23 8 -11 5 45 -23 373 -13 681 24 779 27 73 177 288 280 401 22 25 41
48 41 53 0 19 218 76 390 103 126 19 422 25 570 11 114 -11 85 7 -35 22 -83
10 -311 13 -395 4z"/>
<path d="M3765 12941 c3 -5 42 -22 88 -37 45 -15 101 -35 125 -45 23 -10 42
-14 42 -8 0 13 -84 50 -174 78 -76 23 -90 25 -81 12z"/>
<path d="M1091 12046 c11 -9 69 -14 69 -6 0 6 -16 10 -37 10 -20 0 -34 -2 -32
-4z"/>
<path d="M510 11600 c-8 -5 -12 -11 -10 -14 3 -2 14 2 24 10 22 15 10 19 -14
4z"/>
<path d="M462 11475 c0 -24 -3 -49 -7 -55 -3 -5 -1 -10 4 -10 6 0 11 12 12 28
0 15 2 39 3 55 1 15 -1 27 -5 27 -4 0 -7 -20 -7 -45z"/>
<path d="M1176 11485 c4 -16 17 -59 30 -95 44 -127 123 -387 159 -525 34 -128
65 -216 49 -140 -38 188 -208 754 -235 780 -7 7 -8 1 -3 -20z"/>
<path d="M470 11375 c-7 -9 -11 -17 -9 -20 3 -2 10 5 17 15 14 24 10 26 -8 5z"/>
<path d="M452 11320 c0 -14 2 -19 5 -12 2 6 2 18 0 25 -3 6 -5 1 -5 -13z"/>
<path d="M423 11245 c0 -27 2 -38 4 -22 2 15 2 37 0 50 -2 12 -4 0 -4 -28z"/>
<path d="M443 11225 c0 -22 -3 -50 -7 -62 -4 -12 -3 -24 2 -26 4 -3 9 4 9 15
1 11 10 29 19 40 16 16 16 18 2 13 -13 -5 -18 1 -21 27 -4 30 -4 29 -4 -7z"/>
<path d="M1120 11259 c0 -3 32 -102 71 -220 l71 -214 7 -180 c5 -146 8 -171
15 -131 5 27 6 104 3 170 -5 108 -11 137 -52 266 -67 210 -113 335 -115 309z"/>
<path d="M413 11145 c0 -27 2 -38 4 -22 2 15 2 37 0 50 -2 12 -4 0 -4 -28z"/>
<path d="M2245 11168 c48 -25 250 -68 324 -68 30 0 52 2 49 5 -3 3 -63 15
-134 25 -71 11 -159 29 -196 40 -83 25 -94 25 -43 -2z"/>
<path d="M475 11150 c-3 -5 1 -10 9 -10 8 0 18 5 21 10 3 6 -1 10 -9 10 -8 0
-18 -4 -21 -10z"/>
<path d="M431 11064 c0 -11 3 -14 6 -6 3 7 2 16 -1 19 -3 4 -6 -2 -5 -13z"/>
<path d="M920 10440 c0 -37 155 -398 167 -387 2 3 -13 45 -34 94 -22 48 -59
136 -82 196 -41 101 -51 121 -51 97z"/>
<path d="M296 10035 c3 -44 10 -84 16 -90 6 -6 6 16 2 60 -10 101 -25 127 -18
30z"/>
<path d="M204 9866 c-10 -8 -15 -18 -11 -22 4 -4 17 2 30 14 24 25 12 30 -19
8z"/>
<path d="M3174 9793 c-10 -79 10 -675 36 -1078 24 -367 51 -729 55 -734 13
-12 14 14 5 129 -5 69 -16 235 -24 370 -9 135 -18 281 -22 325 -14 184 -41
829 -39 933 1 61 1 112 -1 112 -1 0 -6 -26 -10 -57z"/>
<path d="M3745 8460 c3 -19 10 -39 16 -45 7 -7 8 -1 3 20 -11 46 -26 67 -19
25z"/>
<path d="M3390 1707 c0 -36 -67 -63 -149 -59 -76 3 -91 -8 -149 -102 l-36 -60
0 -139 -1 -139 -28 -15 c-15 -8 -42 -13 -60 -11 l-32 3 -9 115 c-5 63 -11 110
-13 103 -3 -7 -15 -10 -31 -7 -21 4 -34 -1 -57 -26 -29 -31 -30 -33 -31 -139
0 -59 -3 -111 -6 -117 -5 -8 -13 -245 -9 -281 2 -22 79 -70 154 -99 97 -36
321 -145 379 -184 52 -34 158 -79 348 -147 102 -36 142 -46 218 -50 l93 -6
-30 -31 c-17 -18 -31 -35 -31 -38 0 -4 13 -9 30 -13 16 -4 34 -14 39 -22 24
-44 257 62 279 127 9 25 8 30 -10 36 -15 4 -18 11 -14 27 21 74 25 120 13 138
-31 44 -131 141 -199 191 -40 31 -170 154 -288 274 -118 121 -232 234 -252
252 l-38 32 0 82 0 82 46 40 c44 39 46 42 38 81 -9 51 -52 95 -92 95 -16 0
-35 7 -42 15 -18 22 -30 18 -30 -8z m-190 -621 c0 -2 -9 -6 -20 -9 -11 -3 -20
-1 -20 4 0 5 9 9 20 9 11 0 20 -2 20 -4z m60 -6 c0 -12 -8 -12 -35 0 -18 8
-17 9 8 9 15 1 27 -3 27 -9z m-116 -19 c4 -5 24 -12 45 -16 22 -4 42 -13 45
-21 3 -9 10 -13 15 -10 4 3 17 -4 27 -16 l19 -21 -30 16 c-30 15 -90 12 -79
-4 2 -5 18 -6 34 -2 20 3 30 1 30 -6 0 -8 -8 -10 -19 -6 -17 5 -21 0 -27 -30
-5 -26 -9 -33 -15 -23 -7 10 -13 8 -29 -12 -11 -14 -20 -29 -20 -33 0 -14 30
-19 45 -7 10 9 15 9 15 1 0 -6 12 -11 26 -11 15 0 23 4 19 10 -4 7 3 9 22 5
l28 -6 -25 21 c-23 20 -25 21 -37 4 -7 -10 -13 -13 -13 -7 0 7 7 19 16 28 12
12 19 13 30 4 8 -6 21 -9 30 -5 12 4 14 1 10 -14 -3 -11 -9 -29 -12 -40 -3
-11 -11 -20 -17 -21 -63 -6 -78 -5 -83 2 -3 5 -15 9 -28 9 -12 0 -32 9 -44 20
-12 12 -22 16 -22 11 0 -6 -6 -8 -14 -5 -27 10 -6 36 24 29 26 -6 27 -4 26 27
-1 34 -28 64 -46 53 -6 -4 -10 -16 -8 -27 2 -12 -2 -23 -8 -25 -8 -2 -8 11 0
46 7 38 12 47 20 36 14 -17 56 -30 56 -17 0 6 -6 12 -12 14 -7 3 -13 17 -13
31 -1 27 9 35 19 18z m156 -42 c0 -14 -16 -11 -29 5 -10 12 -8 13 8 9 12 -3
21 -9 21 -14z m-10 -74 c0 -9 -6 -12 -15 -9 -8 4 -12 10 -9 15 8 14 24 10 24
-6z m-125 -133 c-3 -3 -11 0 -18 7 -9 10 -8 11 6 5 10 -3 15 -9 12 -12z m35
-12 c0 -5 -2 -10 -4 -10 -3 0 -8 5 -11 10 -3 6 -1 10 4 10 6 0 11 -4 11 -10z
m-20 -60 c0 -5 -2 -10 -4 -10 -3 0 -8 5 -11 10 -3 6 -1 10 4 10 6 0 11 -4 11
-10z"/>
<path d="M956 1305 c-10 -15 -29 -65 -42 -111 -13 -46 -47 -152 -74 -236 -28
-84 -60 -202 -71 -263 -11 -60 -34 -153 -50 -205 -50 -164 -48 -229 8 -251 16
-6 67 -18 116 -27 48 -9 87 -19 87 -23 0 -17 -94 -89 -116 -89 -13 0 -24 -4
-24 -9 0 -16 103 -35 183 -34 65 0 82 4 101 22 27 25 49 27 67 5 10 -13 24
-15 66 -10 55 6 163 43 162 54 0 4 -19 21 -41 37 -23 17 -43 35 -45 40 -2 6
23 18 55 27 31 10 72 26 90 38 33 20 39 47 33 132 -1 14 6 64 15 110 23 108
21 152 -11 273 -15 55 -40 150 -57 210 -23 88 -28 122 -23 168 7 68 -8 123
-35 132 -11 3 -61 5 -112 4 -51 -1 -105 3 -120 9 -14 6 -53 14 -85 17 -57 7
-60 6 -77 -20z"/>
<path d="M2769 660 c46 -39 139 -71 318 -110 l152 -33 6 -31 c4 -17 18 -48 32
-68 20 -29 32 -38 54 -38 34 0 33 -2 14 43 -8 20 -15 38 -15 40 0 2 42 -13 94
-34 85 -34 294 -99 319 -99 24 0 -6 11 -128 49 -165 50 -276 95 -295 119 -21
25 -59 45 -75 39 -18 -8 -349 75 -412 103 -29 12 -58 28 -64 36 -6 8 -17 14
-23 14 -6 -1 4 -14 23 -30z"/>
</g>
</svg>
