<?xml version="1.0" standalone="no"?>
<!DOCTYPE svg PUBLIC "-//W3C//DTD SVG 20010904//EN"
 "http://www.w3.org/TR/2001/REC-SVG-20010904/DTD/svg10.dtd">
<svg version="1.0" xmlns="http://www.w3.org/2000/svg"
 width="508.000000pt" height="425.000000pt" viewBox="0 0 508.000000 425.000000"
 preserveAspectRatio="xMidYMid meet">

<g transform="translate(0.000000,425.000000) scale(0.100000,-0.100000)"
fill="#000000" stroke="none">
<path d="M1542 4230 c-403 -9 -734 -19 -736 -21 -6 -7 660 -884 671 -884 6 0
188 200 404 445 459 520 426 480 408 479 -8 -1 -344 -9 -747 -19z"/>
<path d="M2742 4238 c2 -3 201 -202 444 -441 l440 -435 303 420 c166 231 300
422 297 425 -4 5 -404 15 -1344 35 -78 2 -141 0 -140 -4z"/>
<path d="M2066 3743 l-456 -498 461 -3 c253 -1 665 -1 916 0 l455 3 -452 495
c-249 272 -457 496 -461 498 -4 2 -213 -221 -463 -495z"/>
<path d="M316 3688 l-308 -433 311 -3 c171 -1 450 -1 620 0 l310 3 -305 430
c-168 237 -309 431 -313 433 -4 1 -146 -192 -315 -430z"/>
<path d="M4129 3682 l-275 -437 604 -3 c333 -1 607 0 609 2 5 5 -647 876 -656
876 -3 -1 -130 -197 -282 -438z"/>
<path d="M37 2986 c135 -161 2158 -2524 2160 -2522 1 1 -196 577 -439 1279
l-441 1277 -654 0 -654 0 28 -34z"/>
<path d="M1614 2998 c3 -13 208 -688 456 -1501 247 -813 450 -1481 450 -1485
0 -4 5 0 10 9 7 13 799 2317 975 2842 l54 157 -976 0 -975 0 6 -22z"/>
<path d="M4232 3005 c-277 -7 -507 -17 -511 -21 -8 -9 -801 -2502 -801 -2517
0 -8 2126 2513 2143 2541 10 15 -113 14 -831 -3z"/>
</g>
</svg>
