<?xml version="1.0" standalone="no"?>
<!DOCTYPE svg PUBLIC "-//W3C//DTD SVG 20010904//EN"
 "http://www.w3.org/TR/2001/REC-SVG-20010904/DTD/svg10.dtd">
<svg version="1.0" xmlns="http://www.w3.org/2000/svg"
 width="2527.000000pt" height="451.000000pt" viewBox="0 0 2527.000000 451.000000"
 preserveAspectRatio="xMidYMid meet">

<g transform="translate(0.000000,451.000000) scale(0.100000,-0.100000)"
fill="#000000" stroke="none">
<path d="M1393 4484 c-299 -7 -556 -14 -573 -16 -29 -3 -24 -11 308 -450 185
-246 340 -446 343 -445 5 2 768 862 808 910 13 16 1 17 -165 16 -99 -1 -423
-8 -721 -15z"/>
<path d="M2057 3997 l-459 -502 461 -3 c254 -1 668 -1 921 0 l461 3 -458 502
c-252 276 -460 502 -463 502 -3 0 -211 -226 -463 -502z"/>
<path d="M3168 4060 c244 -242 446 -440 450 -440 8 1 614 842 609 846 -4 4
-1276 34 -1407 34 l-95 -1 443 -439z"/>
<path d="M310 3948 c-168 -237 -306 -435 -308 -439 -2 -5 276 -9 618 -9 513 0
621 2 617 13 -8 20 -607 862 -615 864 -4 1 -144 -192 -312 -429z"/>
<path d="M4122 3938 l-280 -443 310 -3 c170 -1 447 -1 614 0 l305 3 -330 443
c-182 243 -332 442 -335 442 -2 0 -130 -199 -284 -442z"/>
<path d="M17960 4369 c-188 -18 -378 -72 -534 -152 -368 -188 -616 -542 -698
-997 -25 -137 -29 -410 -9 -535 98 -613 462 -1038 1006 -1175 288 -73 628 -63
899 26 568 187 927 729 926 1399 -1 654 -356 1181 -919 1365 -206 67 -441 91
-671 69z m350 -209 c133 -17 266 -56 385 -114 328 -161 539 -450 616 -848 29
-146 31 -386 5 -528 -44 -245 -155 -477 -310 -647 -159 -174 -420 -308 -670
-342 -115 -16 -338 -14 -446 5 -489 84 -829 430 -942 957 -29 136 -31 415 -5
557 34 183 106 358 207 505 60 85 189 213 273 268 138 91 336 164 507 186 95
12 283 13 380 1z"/>
<path d="M6980 2920 l0 -1411 593 4 c638 4 641 4 842 62 119 34 311 129 410
203 371 277 571 747 533 1255 -26 361 -163 673 -398 907 -184 185 -396 296
-689 362 -91 20 -126 22 -693 25 l-598 4 0 -1411z m1156 1189 c259 -36 473
-134 645 -296 167 -158 291 -390 340 -638 9 -44 14 -137 14 -250 0 -196 -9
-263 -57 -409 -123 -382 -412 -655 -794 -752 -145 -36 -265 -44 -690 -44
l-394 0 0 1200 0 1200 429 0 c253 0 462 -4 507 -11z"/>
<path d="M9900 2920 l0 -1410 110 0 110 0 0 1410 0 1410 -110 0 -110 0 0
-1410z"/>
<path d="M11706 4322 c-10 -17 -1248 -2777 -1253 -2795 -5 -16 3 -17 113 -15
l118 3 204 465 c545 1246 937 2129 941 2124 3 -3 262 -587 576 -1297 l570
-1292 118 -3 c110 -2 118 -1 113 15 -3 10 -287 644 -630 1408 l-623 1390 -121
3 c-66 1 -123 -1 -126 -6z"/>
<path d="M13530 2920 l0 -1410 115 0 115 0 2 1242 3 1241 536 -814 c528 -802
536 -814 570 -817 24 -2 40 3 50 15 9 10 252 379 540 821 l524 803 3 -1246 2
-1245 110 0 110 0 0 1410 0 1410 -137 0 -138 -1 -528 -814 c-291 -448 -531
-815 -535 -815 -4 0 -248 367 -542 815 l-535 815 -132 0 -133 0 0 -1410z"/>
<path d="M20070 2921 l0 -1411 110 0 110 0 2 1157 3 1157 945 -1157 945 -1157
42 0 43 0 0 1410 0 1410 -105 0 -105 0 -2 -1162 -3 -1163 -944 1160 -943 1160
-49 3 -49 3 0 -1410z"/>
<path d="M22880 2920 l0 -1411 598 4 c574 3 601 4 697 26 306 68 514 180 708
380 223 231 344 508 378 871 27 287 -45 627 -186 875 -190 333 -490 544 -900
636 -96 22 -123 23 -697 26 l-598 4 0 -1411z m1180 1185 c141 -21 232 -50 355
-109 132 -65 214 -126 317 -235 132 -140 223 -312 276 -520 25 -98 27 -121 27
-316 0 -195 -2 -218 -27 -315 -102 -404 -366 -699 -730 -819 -182 -60 -217
-63 -715 -68 l-463 -5 0 1201 0 1201 433 0 c328 0 455 -4 527 -15z"/>
<path d="M12 3263 c8 -10 493 -578 1078 -1263 584 -685 1073 -1256 1087 -1270
l24 -25 -16 45 c-9 25 -205 590 -435 1255 -230 666 -424 1225 -430 1243 l-12
32 -656 0 c-623 0 -654 -1 -640 -17z"/>
<path d="M1602 3263 c32 -118 913 -2993 918 -2993 5 0 1030 2986 1030 3003 0
4 -439 7 -976 7 -925 0 -976 -1 -972 -17z"/>
<path d="M4370 3264 c-261 -6 -516 -12 -566 -13 l-91 -1 -398 -1252 c-219
-689 -400 -1262 -403 -1273 -4 -14 2020 2378 2147 2538 16 20 32 20 -689 1z"/>
<path d="M13890 609 l0 -611 328 5 c263 3 339 8 387 21 188 52 272 149 269
311 -2 112 -68 212 -177 264 l-61 29 35 15 c128 53 191 208 143 350 -22 65
-93 140 -161 173 -93 44 -179 53 -485 54 l-278 0 0 -611z m661 501 c119 -37
182 -114 182 -225 0 -66 -16 -106 -55 -141 -68 -63 -136 -74 -438 -74 l-250 0
0 230 0 230 249 0 c219 0 256 -2 312 -20z m44 -558 c119 -44 178 -119 178
-226 0 -92 -32 -140 -118 -184 -68 -34 -148 -42 -412 -42 l-253 0 0 241 0 241
273 -4 c249 -4 277 -6 332 -26z"/>
<path d="M15531 1178 c-10 -24 -136 -290 -280 -593 -144 -302 -264 -557 -267
-567 -5 -16 1 -18 44 -18 28 0 54 5 59 13 5 6 38 74 73 149 l64 138 380 0 381
0 64 -138 c36 -75 69 -143 74 -149 10 -14 107 -18 107 -5 0 4 -128 277 -285
607 l-284 600 -56 3 -55 3 -19 -43z m239 -413 c89 -192 165 -356 167 -362 4
-10 -66 -13 -331 -13 -185 0 -336 3 -336 7 0 8 333 723 336 720 1 -1 75 -159
164 -352z"/>
<path d="M16400 609 l0 -610 48 3 47 3 5 493 5 493 425 -493 c292 -338 432
-493 445 -493 20 0 20 11 20 605 l0 605 -47 3 -48 3 0 -495 c0 -273 -3 -496
-7 -495 -5 0 -199 223 -432 495 -279 325 -430 494 -442 494 -18 0 -19 -21 -19
-611z"/>
<path d="M17680 615 l0 -605 50 0 50 0 0 290 c0 160 2 290 5 290 3 0 154 -132
336 -293 l331 -292 59 0 c32 0 59 4 60 8 0 5 -150 141 -333 304 -183 162 -339
301 -346 307 -10 10 51 69 308 296 176 156 320 287 320 292 0 4 -26 8 -58 8
l-58 0 -309 -275 -310 -274 -3 274 -2 275 -50 0 -50 0 0 -605z"/>
<path d="M6980 690 l0 -60 3293 2 3292 3 3 58 3 57 -3296 0 -3295 0 0 -60z"/>
<path d="M18680 690 l0 -60 3293 2 3292 3 3 58 3 57 -3296 0 -3295 0 0 -60z"/>
</g>
</svg>
